
******************************************************************************************************

Encoder ..........: Tommie Cook
Video Codec.......:AVI
Video Bitrate.....: 2500 Kbps
Audio Codec.......: AC-3
Audio Bitrate.....: 192 Kbps
Resolution........: 720 x 340
Runtime...........: 1h 16mn
Release Date......: N/A
Theatre Date......: 1 June 2012 (USA)
Language..........: English
Subtitles.........: n/a
IMDB Rating.......: 6.7/10
IMDb URL..........: http://www.imdb.com/title/tt1735898/

_______________________________________________________________________________

General
Complete name : Snow.White.and.the.Huntsman.2012.TS.V2.XVID AC3-CrEwSaDe.avi
Format : AVI
Format/Info : Audio Video Interleave
Format profile : OpenDML
File size : 2.21 GiB
Duration : 1h 57mn
Overall bit rate : 2 704 Kbps
Writing library : VirtualDub build 32842/release


Video
________________________________________________________________________________

Video

Video
ID : 0
Format : AVC
Format/Info : Advanced Video Codec
Format profile : High@L3.0
Format settings, CABAC : Yes
Format settings, ReFrames : 4 frames
Codec ID : H264
Duration : 1h 57mn
Bit rate : 2 500 Kbps
Width : 720 pixels
Height : 340 pixels
Display aspect ratio : 2.118
Frame rate : 29.970 fps
Color space : YUV
Chroma subsampling : 4:2:0
Bit depth : 8 bits
Scan type : Progressive
Bits/(Pixel*Frame) : 0.341
Stream size : 2.04 GiB (92%)


_________________________________________________________________________________

Audio
ID : 1
Format : AC-3
Format/Info : Audio Coding 3
Mode extension : CM (complete main)
Format settings, Endianness : Big
Codec ID : 2000
Duration : 1h 57mn
Bit rate mode : Constant
Bit rate : 192 Kbps
Channel(s) : 2 channels
Channel positions : Front: L R
Sampling rate : 48.0 KHz
Bit depth : 16 bits
Compression mode : Lossy
Stream size : 161 MiB (7%)
Alignment : Aligned on interleaves
Interleave, duration : 33 ms (1.00 video frame)
Interleave, preload duration : 512 ms

_________________________________________________________________________________


SOURCES:

VIDEO:German Cam, Thanks
AUDIO:Dragon Exclusive, Thanks
_________________________________________________________________________________


Plot:
In a twist to the fairy tale, the Huntsman ordered to take Snow White into the woods to be killed winds up becoming her protector and mentor in a quest to vanquish the Evil Queen

SCREENS:
 
http://i1179.photobucket.com/albums/x394/crewsade/tommiecook/2-6.png 
http://i1179.photobucket.com/albums/x394/crewsade/tommiecook/3-7.png 
http://i1179.photobucket.com/albums/x394/crewsade/tommiecook/4-5.png 
http://i1179.photobucket.com/albums/x394/crewsade/tommiecook/5-4.png 
http://i1179.photobucket.com/albums/x394/crewsade/tommiecook/6-4.png 
http://i1179.photobucket.com/albums/x394/crewsade/tommiecook/7-3.png